<svg width="28" height="28" viewBox="0 0 28 28" fill="none" xmlns="http://www.w3.org/2000/svg">
    <path fill-rule="evenodd" clip-rule="evenodd" d="M8.637 4C5.422 4 3 6.393 3 9.455C3 11.302 4.23 13.598 6.446 16.232C8.472 18.64 11.179 21.169 14.067 23.678C16.948 21.171 19.623 18.644 21.617 16.238C23.795 13.607 25 11.307 25 9.454C25 6.368 22.686 4 19.498 4C17.735 4 15.958 4.815 14.822 6.121C14.7281 6.22891 14.6122 6.31544 14.482 6.37473C14.3519 6.43402 14.2105 6.4647 14.0675 6.4647C13.9245 6.4647 13.7831 6.43402 13.653 6.37473C13.5228 6.31544 13.4069 6.22891 13.313 6.121C12.176 4.815 10.4 4 8.637 4ZM1 9.455C1 5.236 4.37 2 8.637 2C10.617 2 12.589 2.763 14.067 4.054C15.548 2.763 17.518 2 19.498 2C23.793 2 27 5.265 27 9.455C27 12.061 25.376 14.835 23.157 17.513C20.903 20.234 17.867 23.05 14.72 25.758C14.5385 25.9143 14.307 26.0002 14.0675 26.0002C13.828 26.0002 13.5965 25.9143 13.415 25.758C10.271 23.053 7.202 20.238 4.915 17.519C2.665 14.845 1 12.068 1 9.455Z" fill="var(--key-color)"/>
    <path d="M25.5 11.5L14 25L4 15.5L2 9L3.5 5L6.5 3L10.5 3.5L14 5.5L17 3.5H22.5L26 7L25.5 11.5Z" fill="var(--key-color)" stroke="var(--key-color)"/>
</svg>
